# xmcd
#
# Track frame offsets:
#	150
#	15637
#	42825
#	58162
#	68712
#	93325
#	107712
#	120262
#	133012
#	148362
#	162037
#	173800
#	191812
#	212300
#	226100
#	240737
#	250100
#	261387
#	272562
#
# Disc length: 3784 seconds
#
# Revision: 0
# Processed by: cddbd v1.5.2PL0 Copyright (c) Steve Scherf et al.
# Submitted via: EZCDAudioConverter 2.3.5.1
#
DISCID=080ec613
DTITLE=Artisti Vari - The Best - Black brown and white
DYEAR=1993
DGENRE=Blues
TTITLE0=Muddy Waters - I can't be satisfied
TTITLE1=Muddy Waters - Crosseyed cat
TTITLE2=Muddy Waters - I'm ready
TTITLE3=Muddy Waters - I want to be loved
TTITLE4=Muddy Waters - Sad sad say
TTITLE5=Muddy Waters - Rolling stone
TTITLE6=John Lee Hooker - Boogie chillen
TTITLE7=Big Joe Turner - TV mama
TTITLE8=Big Joe Turner - Chains of love
TTITLE9=Big Bill Broonzy - Get back - Black brown and white
TTITLE10=Big Bill Broonzy - Trouble in mind
TTITLE11=Rev.Gary Davis - Say no to the devil
TTITLE12=Ida Cox - Fogyism
TTITLE13=Bessie Smith - Nobody knows you when you're down and out
TTITLE14=Bessie Smith - St.Louis blues
TTITLE15=Sam Cooke and The Soul Stirrers - Touch the hem of his garment
TTITLE16=Sam Cooke and The Soul Stirrers - Be with me jesus
TTITLE17=The Drifters - Save the last dance for me
TTITLE18=The Drifters - Saturday night at the movies
EXTD=
EXTT0=
EXTT1=
EXTT2=
EXTT3=
EXTT4=
EXTT5=
EXTT6=
EXTT7=
EXTT8=
EXTT9=
EXTT10=
EXTT11=
EXTT12=
EXTT13=
EXTT14=
EXTT15=
EXTT16=
EXTT17=
EXTT18=
PLAYORDER=
